<?xml version="1.0" encoding="iso-8859-1"?>
<!-- Uploaded to: SVGRepo, www.svgrepo.com, Transformed by: SVGRepo Tools -->
<svg id="Capa_1" version="1.1" viewBox="0 0 380 380"
     xml:space="preserve" xmlns="http://www.w3.org/2000/svg">
<g id="XMLID_451_">

		<rect height="134.336" id="XMLID_40_" style="fill:#AED5F3;" transform="matrix(-0.7071 -0.7071 0.7071 -0.7071 352.1992 525.8633)"
              width="134.336" x="217.842" y="122.82"/>

    <rect height="134.337" id="XMLID_39_" style="fill:#78B9EB;" transform="matrix(-0.7071 -0.7071 0.7071 -0.7071 257.2015 296.5173)"
          width="134.337" x="122.843" y="27.822"/>
    <polygon id="XMLID_38_" points="190.012,0 190.011,189.981 95.021,94.99 	" style="fill:#006DF0;"/>

    <rect height="134.336" id="XMLID_37_" style="fill:#006DF0;" transform="matrix(-0.7071 -0.7071 0.7071 -0.7071 122.7974 620.884)"
          width="134.336" x="122.82" y="217.842"/>
    <polygon id="XMLID_36_" points="189.989,190.02 189.988,380 94.998,285.01 	" style="fill:#0052B4;"/>

    <rect height="134.337" id="XMLID_35_" style="fill:#003778;" transform="matrix(-0.7071 -0.7071 0.7071 -0.7071 27.801 391.5389)"
          width="134.337" x="27.822" y="122.843"/>
    <path d="M130.62,265.221c-10.931-10.93-22.804-40.523-11.874-51.453
		c10.93-10.929,40.522,0.944,51.452,11.874c10.93,10.929,10.931,28.649,0.001,39.579C159.269,276.15,141.549,276.15,130.62,265.221z
		" id="XMLID_34_" style="fill:#003778;"/>
    <path d="M265.222,249.38c-10.931,10.93-40.524,22.803-51.454,11.874
		c-10.929-10.929,0.945-40.522,11.875-51.452c10.929-10.929,28.649-10.93,39.578-0.001
		C276.15,220.731,276.15,238.451,265.222,249.38z" id="XMLID_33_" style="fill:#006DF0;"/>
    <path d="M249.389,114.788c10.931,10.93,22.804,40.523,11.874,51.453
		c-10.93,10.929-40.522-0.944-51.452-11.874c-10.93-10.93-10.93-28.65-0.001-39.579C220.739,103.858,238.46,103.858,249.389,114.788
		z" id="XMLID_32_" style="fill:#AED5F3;"/>
    <path d="M114.812,130.612c10.93-10.93,40.522-22.804,51.452-11.875
		c10.931,10.931-0.943,40.524-11.873,51.454c-10.93,10.929-28.65,10.929-39.58-0.001
		C103.881,159.26,103.883,141.541,114.812,130.612z" id="XMLID_3_" style="fill:#006DF0;"/>
</g>
    <g>
</g>
    <g>
</g>
    <g>
</g>
    <g>
</g>
    <g>
</g>
    <g>
</g>
    <g>
</g>
    <g>
</g>
    <g>
</g>
    <g>
</g>
    <g>
</g>
    <g>
</g>
    <g>
</g>
    <g>
</g>
    <g>
</g>
</svg>
